<svg width="25" height="24" viewBox="0 0 25 24" fill="none" xmlns="http://www.w3.org/2000/svg">
<path fill-rule="evenodd" clip-rule="evenodd" d="M0.583496 6C0.583496 4.61929 1.70278 3.5 3.0835 3.5H21.0835C22.4642 3.5 23.5835 4.61929 23.5835 6V18C23.5835 19.3807 22.4642 20.5 21.0835 20.5H3.0835C1.70278 20.5 0.583496 19.3807 0.583496 18V6ZM3.0835 4.5C2.25507 4.5 1.5835 5.17157 1.5835 6V18C1.5835 18.8284 2.25507 19.5 3.0835 19.5H21.0835C21.9119 19.5 22.5835 18.8284 22.5835 18V6C22.5835 5.17157 21.9119 4.5 21.0835 4.5H3.0835Z" fill="#414141"/>
<path fill-rule="evenodd" clip-rule="evenodd" d="M0.583496 10C0.583496 9.72386 0.807354 9.5 1.0835 9.5H23.0835C23.3596 9.5 23.5835 9.72386 23.5835 10C23.5835 10.2761 23.3596 10.5 23.0835 10.5H1.0835C0.807354 10.5 0.583496 10.2761 0.583496 10Z" fill="#414141"/>
</svg>
